<svg version="1.1" xmlns="http://www.w3.org/2000/svg" xmlns:xlink="http://www.w3.org/1999/xlink" viewBox="0 0 512 512" xml:space="preserve">
  <g>
    <path d="M358.777,300.988c-0.644-2.007-1.398-3.898-2.195-5.718c-3.48-8.246-7.722-14.492-11.09-17.562 c-4.317-3.977-23.848-13.887-40.5-22.367c-12.152-6.246-19.004-11.66-20.969-13.442v-10.519v-5.79 c0.422-0.16,0.813-0.598,1.222-0.886c0.031-0.023,0.063-0.043,0.094-0.07c0.434-0.316,0.882-0.488,1.293-0.938 c0.152-0.148,0.305-0.305,0.418-0.492c2.309-2.61,4.199-5.562,5.149-8.324c0.113-0.34,0.226-0.684,0.34-1.024 c2.082-5.906,3.671-12.566,3.972-14.461c0.028-0.148,0.039-0.258,0.059-0.375c0.007-0.031,0.019-0.086,0.027-0.117 c0.867,0.266,1.695,0.379,2.414,0.379c8.782,0,12.379-17.981,12.867-22.711c0.531-4.766-3.706-8.02-5.258-9.274 c0.34-0.758,0.754-1.89,1.172-3.218c0.039-0.074,0.074-0.188,0.114-0.301c0.531-1.626,1.285-3.825,1.969-6.887 c0.414-1.82,0.793-3.976,1.133-6.511c0.226-1.551,0.266-3.219,0.191-4.844c-0.114-3.41-0.832-6.93-2.082-10.145 c-1.019-2.801-2.461-5.374-4.203-7.457l-0.035-0.039c-1.21-1.438-2.574-2.914-4.015-4.242c-5.676-5.488-12.375-9.914-15.516-9.914 c-6.359-11.43-14.5-18.848-29.562-19.871c-0.91-0.039-1.816-0.039-2.801-0.074h-0.191c-11.351,0-30.508,9.762-40.27,23.09 c0,0.034,0,0.034,0,0.034c-0.984,1.329-1.855,2.688-2.614,4.051c-1.289,2.344-2.461,4.543-3.445,6.625 c-1.59,3.367-2.801,6.508-3.558,9.649c-0.454,1.476-0.754,2.992-0.906,4.542c-0.645,4.391-0.531,9.047,0.34,14.649v0.035 c0.339,2.313,0.797,4.813,1.402,7.496c0.035,0.039,0.035,0.078,0.035,0.114c0.458,1.328,0.832,2.461,1.25,3.218 c-1.516,1.254-5.262,3.332-4.809,8.062c0.454,4.383,3.141,20.742,10.383,23.383c0.207,0.074,0.418,0.125,0.633,0.175 c0.445,0.11,0.843,0.364,1.324,0.364c0.797,0,1.629-0.114,2.535-0.379c0.152,1.515,0.949,5.828,2.574,10.218 c0.457,1.29,0.984,2.914,1.554,4.618c0.114,0.34,0.226,0.645,0.34,0.988c0.946,2.726,2.722,5.676,4.957,8.211 c0.23,0.266,0.492,0.531,0.719,0.797c0.832,0.867,1.703,1.512,2.613,1.855v5.676v10.633c-1.93,1.782-8.82,7.234-20.934,13.442 c-16.652,8.511-36.106,18.434-40.422,22.367c-3.371,3.031-7.61,9.316-11.129,17.562c-0.758,1.82-1.516,3.711-2.195,5.718 c-0.645,1.813-1.25,3.707-1.742,5.676c-0.68,2.383-1.211,4.844-1.664,7.379c-0.832,4.847,2.121,9.5,6.851,10.71 c27.742,7.082,62.149,11.286,99.434,11.286c37.246,0,71.614-4.203,99.321-11.242c4.77-1.211,7.722-5.906,6.851-10.754 c-0.453-2.535-1.023-4.996-1.668-7.379C360.027,304.695,359.461,302.801,358.777,300.988z"></path>
    <path d="M114.703,0C70.511,0,34.558,35.981,34.558,80.203v351.648c0,44.196,35.953,80.149,80.145,80.149H317.09 c1.531,0,3.062-0.016,4.535-0.082c85.145-2.332,153.402-70.59,155.734-155.738c0.066-1.481,0.082-3.012,0.082-4.473V80.203 C477.442,35.981,441.488,0,397.297,0H114.703z M437.398,80.203v271.504c0,0.973,0,2.004-0.058,2.973 c-0.102,4.23-0.454,8.398-0.981,12.507h-77.176c-14.668,0-26.554,11.887-26.554,26.555v77.175 c-4.11,0.528-8.278,0.879-12.504,0.981c-0.973,0.058-2.004,0.058-3.035,0.058H114.703c-22.141,0-40.102-17.906-40.102-40.106 V80.203c0-22.195,17.961-40.156,40.102-40.156h282.594C419.434,40.047,437.398,58.008,437.398,80.203z"></path>
  </g>
</svg>
